Coordinates
version=1
nRows=13
nColumns=40
inDegrees=yes

Units are S.I. units (second, meters, Newtons, ...)
Angles are in degrees.

endheader
time	pelvis_tilt	pelvis_list	pelvis_rotation	pelvis_tx	pelvis_ty	pelvis_tz	hip_flexion_r	hip_adduction_r	hip_rotation_r	knee_angle_r	knee_angle_r_beta	ankle_angle_r	subtalar_angle_r	mtp_angle_r	hip_flexion_l	hip_adduction_l	hip_rotation_l	knee_angle_l	knee_angle_l_beta	ankle_angle_l	subtalar_angle_l	mtp_angle_l	lumbar_extension	lumbar_bending	lumbar_rotation	arm_flex_r	arm_add_r	arm_rot_r	elbow_flex_r	pro_sup_r	wrist_flex_r	wrist_dev_r	arm_flex_l	arm_add_l	arm_rot_l	elbow_flex_l	pro_sup_l	wrist_flex_l	wrist_dev_l
      8.14000000	     -0.97168269	     -5.96522103	      3.81396623	      1.06798448	      0.91939179	      0.56662226	     10.68257737	      8.03728705	     -9.93818099	     25.81445174	     25.81445174	     17.51684207	     -8.03340967	      0.22300914	     15.04631017	    -17.66641582	      2.16329986	     58.86983995	     58.86983995	      6.91381171	    -18.82573825	     13.36994898	     -8.49654795	      5.52834273	      1.69088578	     29.78744072	    -23.61079265	     -6.55058279	     50.62682166	     45.53139155	      0.00000000	      0.00000000	     -3.33505831	    -10.46469744	      1.74526354	     28.87585859	     45.00284972	      0.00000000	      0.00000000
      8.16214286	     -0.65775963	     -6.03634701	      4.62509149	      1.06624994	      0.91845144	      0.56750159	     10.43240358	      8.27768519	    -10.09619823	     26.22236954	     26.22236954	     17.96870583	     -8.97144320	      0.55765280	     16.66615034	    -17.83508565	      2.32222330	     59.89365487	     59.89365487	      8.65401742	    -19.14897485	     15.29297559	     -8.60653739	      5.56467314	      1.65202839	     31.47926658	    -23.27657839	     -7.00330710	     51.97726260	     45.51372072	      0.00000000	      0.00000000	     -5.10326074	    -10.17310796	      2.04886281	     28.78442554	     44.95417864	      0.00000000	      0.00000000
      8.18428571	     -0.39138174	     -6.12811068	      5.49660282	      1.06434004	      0.91747754	      0.56823421	     10.18307319	      8.49760695	    -10.48297106	     26.50291959	     26.50291959	     18.27311324	     -9.66936423	      0.69975735	     18.39804516	    -18.02717041	      2.43244695	     60.66442355	     60.66442355	     10.13522327	    -19.33285047	     16.47023602	     -8.66310594	      5.58377406	      1.81983417	     33.09414002	    -23.27388803	     -7.39788699	     52.98958352	     45.50438338	      0.00000000	      0.00000000	     -6.76906852	     -9.85627848	      2.43484524	     28.48641716	     44.87962045	      0.00000000	      0.00000000
      8.20642857	     -0.09306565	     -6.12376482	      6.38392273	      1.06242213	      0.91673558	      0.56875619	      9.82482962	      8.66201700	    -10.73535951	     26.67548647	     26.67548647	     18.68510391	    -10.52054707	      0.98882125	     20.02363544	    -17.97408549	      2.61789117	     61.06875752	     61.06875752	     12.12667476	    -19.44065548	     19.04781215	     -8.78962716	      5.57586545	      1.68614043	     34.87609092	    -22.85251956	     -8.00156268	     54.24009768	     45.49630371	      0.00000000	      0.00000000	     -8.63441112	     -9.68505807	      3.25415580	     28.47254281	     44.73939725	      0.00000000	      0.00000000
      8.22857143	      0.20922901	     -6.06959001	      7.29712126	      1.06043697	      0.91630232	      0.56899020	      9.38784490	      8.74060881	    -11.12400966	     26.72386787	     26.72386787	     19.06781396	    -11.06135334	      1.27808090	     21.50170078	    -17.78612616	      2.78236263	     60.92721291	     60.92721291	     13.95542015	    -19.50583047	     21.34161980	     -8.90111202	      5.49356917	      1.89189090	     36.49225149	    -22.73237813	     -8.72586971	     55.12588426	     45.50580779	      0.00000000	      0.00000000	    -10.25056863	     -9.62263683	      4.50925900	     28.75723648	     44.54390118	      0.00000000	      0.00000000
      8.25071429	      0.45213289	     -5.94869192	      8.16997317	      1.05836172	      0.91612592	      0.56901111	      8.94133552	      8.71233787	    -11.61295372	     26.64422747	     26.64422747	     19.30700004	    -11.43759023	      1.31043008	     22.77390452	    -17.51256543	      2.78760344	     60.07303607	     60.07303607	     14.82789067	    -19.54289025	     21.24717724	     -8.94507961	      5.31406684	      2.53535657	     37.76499567	    -23.23720155	     -8.94060478	     55.59403279	     45.50567516	      0.00000000	      0.00000000	    -11.28615558	     -9.41205786	      4.66577526	     28.46449115	     44.50599058	      0.00000000	      0.00000000
      8.27285714	      0.65787508	     -5.82897945	      9.10103191	      1.05611993	      0.91619966	      0.56863434	      8.46316181	      8.69512239	    -12.09061198	     26.40370351	     26.40370351	     19.60226058	    -11.80809728	      1.81671998	     24.01019045	    -17.01973938	      3.05457036	     58.80491531	     58.80491531	     15.94549375	    -19.55465270	     22.34626706	     -8.98606290	      5.22881285	      2.76091589	     39.09194623	    -22.81564781	    -10.55025492	     56.99009340	     45.53606089	      0.00000000	      0.00000000	    -13.01462549	    -10.56502059	     12.28972227	     30.16018849	     43.56905373	      0.00000000	      0.00000000
      8.29500000	      0.71033933	     -5.60679964	      9.97379301	      1.05365845	      0.91647490	      0.56786806	      8.07565921	      8.51461588	    -12.58573556	     26.03958290	     26.03958290	     19.70388261	    -12.11232043	      1.89230449	     25.11676209	    -16.30713228	      3.27683638	     56.91042060	     56.91042060	     16.42278478	    -19.54728921	     22.21669525	     -8.89980704	      4.97289444	      3.13317862	     40.33367034	    -23.07690173	    -10.62136326	     57.64107007	     45.52292895	      0.00000000	      0.00000000	    -13.82873058	    -10.34468565	     12.43937828	     29.87627338	     43.54776886	      0.00000000	      0.00000000
      8.31714286	      0.70351236	     -5.33887024	     10.82034693	      1.05105291	      0.91706007	      0.56672054	      7.66359896	      8.25868785	    -13.09585581	     25.52200444	     25.52200444	     19.71888983	    -12.31870371	      1.99680666	     26.04064516	    -15.40612626	      3.60753125	     54.52228475	     54.52228475	     16.66476927	    -19.51274884	     22.07352494	     -8.79316303	      4.69515266	      3.33943566	     41.57117485	    -23.15873142	    -10.67483061	     58.42541450	     45.50416046	      0.00000000	      0.00000000	    -14.57727553	    -10.11263027	     12.62765217	     29.61663731	     43.52119412	      0.00000000	      0.00000000
      8.33928571	      0.77646443	     -5.06793943	     11.64473439	      1.04845434	      0.91805378	      0.56527534	      7.02884666	      7.99002076	    -13.74644593	     24.77939838	     24.77939838	     19.63381108	    -12.17343629	      1.83918901	     26.58675453	    -14.47270349	      4.00389377	     51.61885528	     51.61885528	     16.27092992	    -19.44009810	     20.76218628	     -8.82307280	      4.45850425	      3.13362623	     42.72744594	    -22.65338595	    -10.63806882	     60.17232888	     45.44902079	      0.00000000	      0.00000000	    -15.40146983	     -9.88080776	     13.42844280	     29.28817257	     43.45302358	      0.00000000	      0.00000000
      8.36142857	      0.70249398	     -4.70807107	     12.36578738	      1.04561285	      0.91912750	      0.56355375	      6.57644029	      7.58935645	    -14.25720085	     24.11955352	     24.11955352	     19.53593918	    -12.16811992	      1.88227551	     27.05319977	    -13.33222496	      4.51777987	     48.46178289	     48.46178289	     15.92467244	    -19.32710010	     20.38984381	     -8.71204451	      4.08159706	      3.42139900	     43.74290040	    -22.72055619	    -10.63526174	     60.97674595	     45.42707066	      0.00000000	      0.00000000	    -15.90340034	     -9.68729087	     13.71623658	     29.16011616	     43.42464500	      0.00000000	      0.00000000
      8.38357143	      0.61997915	     -4.38457570	     12.99361168	      1.04269298	      0.92024477	      0.56158276	      6.06683865	      7.18565728	    -14.87542421	     23.32158248	     23.32158248	     19.15541819	    -11.96372524	      1.19951507	     27.23087665	    -12.30909145	      4.95394287	     44.90764332	     44.90764332	     14.28441438	    -19.14879708	     16.74061605	     -8.69673575	      3.78018747	      3.95162683	     44.33882536	    -23.11101067	    -10.53248365	     62.95434547	     45.36918040	      0.00000000	      0.00000000	    -16.20304799	     -9.64270222	     15.36430407	     29.14448946	     43.33128120	      0.00000000	      0.00000000
      8.40571429	      0.48285465	     -4.10822423	     13.58124601	      1.03960763	      0.92134153	      0.55937000	      5.61665417	      6.79468190	    -15.48673540	     22.53824188	     22.53824188	     19.01848151	    -11.48315617	      1.14438774	     27.44365961	    -11.21193130	      5.79209936	     41.55738478	     41.55738478	     13.65525156	    -18.80317520	     16.23711207	     -8.66951505	      3.52289098	      3.91892626	     45.51481019	    -22.80225904	    -10.35746997	     64.13694276	     45.33066168	      0.00000000	      0.00000000	    -16.64040385	     -9.37487726	     15.80821217	     28.98570091	     43.30010229	      0.00000000	      0.00000000
